<?xml version="1.0" standalone="no"?>
<!DOCTYPE svg PUBLIC "-//W3C//DTD SVG 20010904//EN"
 "http://www.w3.org/TR/2001/REC-SVG-20010904/DTD/svg10.dtd">
<svg version="1.0" xmlns="http://www.w3.org/2000/svg"
 width="500.000000pt" height="500.000000pt" viewBox="0 0 500.000000 500.000000"
 preserveAspectRatio="xMidYMid meet">

<g transform="translate(0.000000,500.000000) scale(0.100000,-0.100000)"
fill="#000000" stroke="none">
<path d="M1898 3886 c-1096 -160 -1108 -162 -1150 -192 -97 -68 -138 -159
-138 -308 1 -208 79 -393 187 -439 21 -9 166 -52 323 -96 355 -99 816 -229
1019 -287 l154 -43 401 89 c220 49 592 132 826 185 234 52 538 120 675 151
138 30 254 56 259 57 4 2 -53 26 -127 55 l-136 53 -7 46 c-4 25 -4 87 -2 137
8 152 74 263 177 297 35 12 17 18 -634 236 -368 122 -681 223 -695 222 -14 -1
-523 -74 -1132 -163z m-817 -345 c831 -281 1211 -411 1218 -415 4 -3 1 -42 -7
-88 -8 -46 -15 -156 -16 -246 -1 -126 -4 -161 -14 -157 -7 2 -254 75 -550 161
-957 278 -903 261 -934 291 -92 88 -125 335 -61 446 26 44 78 77 123 77 20 0
128 -31 241 -69z m3109 -57 c-32 -84 -51 -237 -39 -317 5 -34 10 -70 12 -81 2
-20 25 -14 -928 -246 -554 -135 -856 -209 -879 -216 -19 -6 -19 0 -13 202 6
185 17 298 32 312 5 6 33 11 680 143 270 55 630 129 800 164 171 35 318 64
327 64 15 1 16 -3 8 -25z"/>
<path d="M603 2165 c-92 -82 -142 -224 -128 -360 19 -178 87 -309 184 -360 37
-19 1471 -475 1494 -475 9 0 166 36 349 80 183 44 398 96 478 115 80 19 415
100 745 180 329 80 601 145 605 145 3 1 -48 23 -114 49 -65 26 -122 54 -126
62 -16 29 -33 171 -28 238 8 109 36 154 138 224 47 32 84 61 83 65 -1 3 -35
17 -76 29 l-75 23 -528 -146 c-291 -80 -629 -173 -752 -206 l-222 -61 -493
112 c-270 62 -697 160 -947 217 -250 58 -473 108 -495 111 -37 5 -44 2 -92
-42z m607 -233 c411 -138 952 -323 958 -328 2 -1 -4 -39 -13 -85 -21 -107 -30
-319 -18 -386 6 -29 7 -53 3 -53 -8 0 -130 39 -775 245 -269 86 -533 170 -585
186 -76 24 -101 37 -126 65 -46 51 -67 129 -67 249 0 124 14 178 59 223 33 33
37 34 92 29 34 -3 221 -61 472 -145z m2858 71 c-38 -74 -42 -92 -42 -198 -1
-60 3 -140 7 -176 l8 -66 -907 -227 c-499 -125 -909 -225 -911 -222 -3 2 -10
36 -16 75 -8 53 -8 97 1 169 12 101 46 250 61 265 6 6 1736 378 1794 386 5 1
7 -2 5 -6z"/>
</g>
</svg>
